<?xml version="1.0" encoding="utf-8"?>
<svg xmlns="http://www.w3.org/2000/svg"
	xmlns:xlink="http://www.w3.org/1999/xlink"
	width="16px" height="19px">
<path fill="rgb(169,169,169)" fill-rule="evenodd" d="M 14.12 10.31C 13.52 10.19 13.12 9.59 13.24 8.95 13.36 8.32 13.95 7.9 14.56 8.02 15.16 8.13 15.56 8.74 15.44 9.37 15.32 10 14.73 10.42 14.12 10.31ZM 13.69 7.64C 13.08 7.52 12.69 6.91 12.81 6.28 12.93 5.65 13.52 5.23 14.12 5.34 14.73 5.46 15.12 6.06 15 6.7 14.88 7.33 14.3 7.75 13.69 7.64ZM 12.15 5.49C 11.55 5.38 11.15 4.77 11.27 4.14 11.39 3.51 11.98 3.09 12.59 3.2 13.19 3.32 13.59 3.92 13.47 4.55 13.35 5.19 12.76 5.61 12.15 5.49ZM 8.88 4.68C 7.78 4.47 7.07 3.37 7.28 2.22 7.5 1.07 8.57 0.31 9.67 0.52 10.77 0.72 11.49 1.83 11.27 2.98 11.05 4.13 9.98 4.89 8.88 4.68ZM 10.71 12.96C 10.71 12.96 10.7 12.96 10.7 12.96 8.32 14.62 5.98 16.34 3.62 18.02 1.87 19.26-0.37 17.62 0.02 15.57 0.28 14.17 1.86 13.47 2.86 12.65 3.95 11.76 4.33 10.5 4.58 9.13 4.77 8.07 4.95 7.04 6.16 6.17 10.45 3.12 14.92 9.77 10.71 12.96Z"/>
</svg>