<?xml version="1.0" encoding="utf-8"?>
<svg xmlns="http://www.w3.org/2000/svg"
	xmlns:xlink="http://www.w3.org/1999/xlink"
	width="18px" height="14px">
<path fill="rgb(153,153,153)" fill-rule="evenodd" d="M 17 8C 17 8 1 8 1 8 0.45 8 0 7.55 0 7 0 6.45 0.45 6 1 6 1 6 17 6 17 6 17.55 6 18 6.45 18 7 18 7.55 17.55 8 17 8ZM 17 2C 17 2 1 2 1 2 0.45 2 0 1.55 0 1 0 0.45 0.45-0 1-0 1-0 17-0 17-0 17.55-0 18 0.45 18 1 18 1.55 17.55 2 17 2ZM 1 12C 1 12 17 12 17 12 17.55 12 18 12.45 18 13 18 13.55 17.55 14 17 14 17 14 1 14 1 14 0.45 14 0 13.55 0 13 0 12.45 0.45 12 1 12Z"/>
</svg>