<?xml version="1.0" encoding="utf-8"?>
<!-- Generator: Adobe Illustrator 18.1.1, SVG Export Plug-In . SVG Version: 6.00 Build 0)  -->
<svg version="1.1" id="レイヤー_1" xmlns="http://www.w3.org/2000/svg" xmlns:xlink="http://www.w3.org/1999/xlink" x="0px"
	 y="0px" viewBox="0 0 100 15" enable-background="new 0 0 100 15" xml:space="preserve">
<g>
	<g>
		<path d="M11.3,3.1c-0.2,0-0.3,0.1-0.4,0.1c-0.1,0-0.3-0.2-0.6-0.2C8.5,3.1,7,3.5,5.7,3.9C5.6,3.9,5.5,4,5.5,4.1
			C5.2,5,4.8,5.8,4.5,6.6c0,0.1,0,0.1,0.1,0.1C5.4,6.4,6.3,6,7.2,6c0.4,0,0.9,0.1,1.3,0.4c0.2,0.1,0.2,0.4,0.2,0.6
			c0,0.2-0.7,0.4-0.9,0.4c-0.2,0-0.4-0.1-0.6-0.1c-1.1,0-2.1,0.6-3,0.8c-0.1,0-0.5,0.1-0.5,0.3c-0.8,1.7-1.3,3-1.3,3.9
			c0,0.3,0.2,0.6,0.4,0.6c0.3,0,0.9-0.1,1.4-0.3c0.5-0.2,0.9-0.4,1.2-0.5c0.9-0.4,1.8-1.3,2.9-1.3c0.1,0,0.1,0,0.2,0.1
			c0.1,0.1,0.6,0.3,0.6,0.6c0,0.1,0,0.2-0.1,0.2c-0.1,0-0.2,0.1-0.4,0.2c-0.2,0.2-0.4,0.3-0.5,0.4C6.5,13,4.8,14,2.4,14
			c-0.1,0-1-0.2-1.4-0.7c-0.1-0.2-0.1-0.7-0.1-0.9c0-1.5,0.7-2.7,1.1-4C1.9,8.3,1.7,8.1,1.7,7.8c0-0.1,0-0.2,0-0.2
			c0.1-0.1,0.1-0.1,0.5-0.2c0.1,0,0.2-0.1,0.3-0.2C3,6,3.3,5.4,3.4,4.9c0-0.1,0-0.1-0.1-0.1C3.3,4.8,3,4.9,2.7,4.9
			c-0.1,0-0.2,0-0.3-0.1C2.1,4.7,1.9,4.2,1.9,3.9c0-0.1,0-0.1,0.1-0.1c1.1-0.3,2.2-0.7,3.2-1.1c0.7-0.3,3-0.9,4.8-0.9
			c0.2,0,0.5,0.1,0.6,0.1c0.4,0.2,0.9,0.6,0.9,0.9C11.5,3.1,11.4,3.1,11.3,3.1z"/>
		<path d="M20.6,2.6c0,0.1,0,0.2-0.1,0.2c-0.6,0.8-1.3,1-2.4,2c-0.3,0.3-0.6,0.5-0.8,0.7c-1,0.9-2,1.6-2.9,2.5
			c-0.2,0.2-0.2,0.2-0.2,0.4c0.2,1.6,0.7,3.1,1.1,4.6c0.1,0.3,0.5,0.7,0.5,1c0,0.1,0,0.2-0.1,0.3c-0.1,0.1-0.3,0.1-0.4,0.1
			c-0.3,0-0.6-0.1-1-0.2c-0.1-0.1-0.2-0.1-0.2-0.2c-0.6-1.3-0.7-2.8-1-4.1c0-0.1-0.1-0.2-0.1-0.2c-0.1,0-0.1,0.1-0.4,0.3
			c-1.2,1.3-2.4,2.5-2.7,4c0,0.1,0,0.2-0.3,0.2c-0.3,0.1-0.2,0.2-0.4,0.2c-0.4,0-0.8-0.2-1-0.5c-0.1-0.1-0.1-0.1-0.1-0.3
			c0-0.5,0.4-0.9,0.7-1.4c0.1-0.2,0.2-0.3,0.2-0.4c0.9-1.5,2.2-2.4,3.3-3.6c0.2-0.3,0.2-0.3,0.2-0.4c-0.4-2.3-0.5-3.1-0.5-4.5
			c0-0.4,0.1-0.3,0.1-0.5c0-0.1-0.1-0.2-0.1-0.4c0-0.1,0-0.2,0.2-0.3c0.1-0.1,0.3-0.1,0.5-0.1c0.4,0,0.5,0,0.6,0.2
			c0.1,0.3,0.4,0.5,0.4,0.7c0,0.2-0.2,0.5-0.2,1.3c0,0.7,0.1,1.3,0.2,2c0,0.2,0.1,0.3,0.2,0.3c0.1,0,0.2-0.1,0.4-0.2
			C16,4.8,17.7,3.6,19,2c0.1-0.2,0.2-0.2,0.3-0.2c0.3,0,0.6,0.2,0.9,0.3C20.4,2.2,20.6,2.5,20.6,2.6z"/>
		<path d="M24.1,9.4c-0.2,0.1-1.1,0.5-1.8,0.5c-0.7,0-0.8-0.3-1.1-0.5c-0.1,0-0.1-0.1-0.1-0.1c-0.1,0-0.1,0-0.1,0.2
			c-0.5,1.6-1.1,4-1.1,4.3c0,0.1,0,0.1-0.1,0.2c-0.1,0.1-0.3,0.1-0.4,0.1c-0.1,0-0.2,0-0.2-0.1c-0.3-0.3-0.4-0.2-0.7-0.4
			c0,0-0.1-0.1-0.1-0.1c0,0,0-0.1,0.1-0.3c0.1-0.6,0.4-1.7,0.6-2.3c0-0.1,0.1-0.2,0.1-0.3c0-0.4,0.6-1.7,0.7-2.2
			c0-0.1,0-0.1-0.1-0.1c-0.1-0.1-0.3-0.2-0.3-0.4c0-0.1,0-0.2,0.1-0.2c0.1,0,0.3-0.2,0.6-0.2c0,0,0.1,0,0.1-0.1
			c0.3-1,0.4-1.1,0.6-1.8c0-0.1,0-0.1-0.1-0.1c-0.1,0-0.1,0-0.2-0.1C20.1,5.1,20.1,5,20,4.9c-0.1-0.1-0.1-0.1-0.1-0.2
			c0-0.2,0.1-0.4,0.6-0.7c1.8-1.1,3.5-2.3,5.7-2.3c0.5,0,0.8,0,1.2,0.4C27.8,2.4,28,2.6,28,3.3c0,1-0.4,1.6-0.8,2.5
			C26.5,7.1,25.3,8.5,24.1,9.4z M26.1,3C26,3,25.9,3,25.8,3c-1,0.3-2.1,0.4-2.9,1.2c-0.5,1.3-1.1,2.6-1.3,3.9c0.5,0.4,0.8,0.7,1,0.7
			c0.1,0,0.1,0,0.3-0.1c1.2-0.8,2.2-2,2.9-3.2c0.3-0.6,0.9-1.8,0.9-2.4C26.5,3.1,26.5,3,26.1,3z"/>
		<path d="M26.5,12.6c0-0.2-0.1-0.4-0.1-0.6c0-0.8,0.4-1.6,0.8-2.6c0.8-2,2.3-4.8,3.7-7.1c0.3-0.5,0.4-1.5,1.1-1.5
			c0.2,0,0.4,0,0.6,0c0.2,0,0.4,0.1,0.5,0.2c0.1,0.2,0.1,0.3,0.1,0.5c0,0.2-0.1,0.4-0.2,0.6c-1.6,2.6-3.5,5-4.5,7.8
			c-0.3,0.7-0.7,1.4-0.7,2.2c0,0.2,0,0.4,0.1,0.7c0.1,0.2,0.2,0.2,0.4,0.2c0.1,0,0.2,0,0.3-0.1c0.8-0.5,1.7-2,2.5-2
			c0.1,0,0.6,0.1,0.6,0.4c0,0.2-0.2,0.3-0.4,0.5c-0.9,1-1.6,2.3-3,2.3C28.1,13.9,26.6,13.5,26.5,12.6z"/>
		<path d="M36.9,6.4c0.7,0,1.1-0.1,1.5-0.1c0.6,0,1.1,0.2,1.1,0.5c0,0.2-0.4,0.3-0.5,0.4c0,0.1-0.1,0.1-0.2,0.1
			c-0.4,0.1-0.9,0.2-1.3,0.3c-0.4,0.1-0.6,0.1-0.7,0.1c-0.1,0-0.2,0-0.2,0.1c-0.5,1.9-1.1,3.6-2.2,4.8c-0.5,0.5-1,1-1.6,1
			c-0.2,0-0.3,0-0.4-0.1c-0.7-0.3-1.2-0.7-1.3-1.1c-0.2-0.5-0.3-1-0.3-1.5c0-1.5,0.7-2.7,1.5-4c0.2-0.4,0.2-0.3,0.4-0.5
			c0.6-0.8,1.3-1.6,2.1-1.6c0.3,0,0.6,0.1,0.9,0.3c0.1,0.1,0.2,0.2,0.2,0.3C36.1,5.9,36.4,6.4,36.9,6.4z M34.9,6.3
			C34.9,6.2,34.8,6,34.7,6c-0.1,0-0.2,0.1-0.3,0.2c-0.1,0.1-0.2,0.2-0.3,0.3c-0.6,0.7-2.2,2.9-2.2,5c0,0.1,0,0.1,0.1,0.2
			c0.1,0.1,0.3,0.5,0.4,0.6c0.1,0,0.1,0,0.2,0c0.2,0,0.3-0.1,0.3-0.1c0.1-0.1,0.2-0.1,0.3-0.3c1-1.5,2-2.9,2-4.7c0-0.1,0-0.3,0-0.4
			c0-0.1-0.1-0.1-0.1-0.2C35,6.5,34.9,6.4,34.9,6.3z"/>
		<path d="M40.2,6.8c0,0.2,0,0.4-0.1,0.6C40.1,7.6,40,7.7,40,7.7c0,0.1,0,0.1,0.1,0.1c0,0,0.1,0,0.2-0.1c1-0.7,1.8-1.2,2.5-1.5
			c0.1,0,0.2,0,0.2,0c0.5,0,1,0.1,1.3,0.5c0.1,0.1,0.1,0.2,0.1,0.3c0,0.6-0.5,0.8-0.6,0.8c-0.3,0-0.6-0.2-0.8-0.2
			c-0.1,0-0.1,0-0.3,0.1c-1.9,0.9-3.9,2.5-4.5,5.1c-0.1,0.5-0.3,0.8-0.4,0.9c-0.1,0.1-0.2,0.2-0.3,0.2c-0.3,0-0.4-0.2-0.5-0.4
			c-0.2-0.2-0.3-0.5-0.3-0.7c0-0.6,0.7-1.2,1-1.9c0.4-1.3,0.9-2.7,1.2-4.1c0-0.2,0-0.2,0-0.3c0-0.1-0.1-0.2-0.2-0.4
			c0-0.1,0.3-0.4,0.7-0.4c0.2,0,0.5,0.1,0.6,0.2C40.1,6.1,40.2,6.4,40.2,6.8z"/>
		<path d="M45.9,13c-0.4,0.3-1,0.9-1.8,0.9c-0.5,0-1.1-0.7-1.3-1.4c-0.1-0.2-0.1-0.5-0.1-0.7c0-0.4,0.1-0.8,0.3-1.4
			c0.1-0.3,0.2-0.6,0.3-0.9c0.6-1.3,1.1-2.6,1.7-3.9C45.2,5.1,45.5,5,45.9,5c0.2,0,0.4,0,0.5,0.1c0.1,0.1,0.1,0.1,0.1,0.3
			c0,0.9-0.7,1.4-1.1,2.3c-0.3,0.7-0.8,1.9-1,2.5c-0.3,0.8-0.4,1.5-0.4,1.7c0,0.2,0,0.6,0.3,0.6c0.4,0,0.6-0.1,1.3-0.6
			c0.4-0.3,0.6-0.4,0.8-0.4c0.1,0,0.3,0,0.4,0.1c0.1,0.1,0.1,0.2,0.1,0.2c0,0.2-0.1,0.3-0.3,0.5L45.9,13z M48.4,1.9
			c0,0.1,0,0.2-0.1,0.3c-0.3,0.4-0.7,0.9-1.1,0.9c-0.4,0-0.6-0.2-0.7-0.4c-0.1-0.2-0.1-0.4-0.1-0.6c0-0.2,0.1-0.6,0.2-0.7
			c0.2-0.2,0.5-0.3,0.9-0.3c0.3,0,0.6,0.1,0.7,0.2C48.4,1.5,48.4,1.7,48.4,1.9z"/>
		<path d="M49.5,13.8c-0.2,0-0.4,0-0.7-0.1c-0.4-0.1-1-0.4-1.1-0.5C47.3,13,47,12.6,46.8,12c-0.1-0.4-0.2-1-0.2-1.4
			c0-0.2,0-0.3,0.1-0.6c0.5-1.8,1.7-3.4,3.1-4.8c0.3-0.3,1-0.8,1.9-0.8c0.5,0,0.7,0.1,1.1,0.2c0.2,0.1,0.6,0.4,0.6,1.1
			c0,0.5-0.2,0.9-0.4,1.3c-0.2,0.4-0.3,0.6-0.6,0.8c-1.2,1.4-2.6,2.9-4.1,3.8c-0.1,0.1-0.1,0.1-0.1,0.1c0,0.3,0.3,0.7,0.4,0.7
			c0.2,0.1,0.4,0.1,0.6,0.1c0.3,0,0.6-0.1,1.4-0.5c1.2-0.7,2-1.6,3-2.3c0.2-0.1,0.3-0.1,0.4-0.1c0.1,0,0.4,0.2,0.4,0.4
			c0,0.2,0,0.2,0,0.2c0,0.1,0,0.2-0.1,0.2c-0.9,0.7-1.2,1.6-3.9,3.1C49.8,13.8,49.7,13.8,49.5,13.8z M51.8,5.7c0-0.1,0-0.2-0.1-0.2
			c-0.1,0-0.2,0.1-0.4,0.2c-0.2,0.1-0.2,0.1-0.4,0.2c-1.2,1-2.4,2.5-2.8,4.1c0,0.1,0,0.1,0,0.1c0,0,0.1,0,0.1-0.1
			c1-0.8,1.9-1.8,2.7-2.7c0.3-0.3,0.2-0.4,0.4-0.7C51.6,6.3,51.8,6,51.8,5.7z"/>
		<path d="M55.5,5.6c0.1-0.2,0.1-0.2,0.3-0.4C55.9,5.1,56.1,5,56.4,5c0.4,0,0.6,0.1,0.7,0.3c0,0.1,0.1,0.2,0.1,0.3
			c0,0.2-0.1,0.5-0.4,0.8c-0.2,0.2-0.7,0.8-1.1,1.6c-0.2,0.5-0.7,1.3-1.3,2.8C54.3,11.2,54,12,54,12.1c0,0.1,0,0.2,0.1,0.2
			c0.1,0,0.2-0.1,0.3-0.2c2.4-3.4,3.7-4.1,4.1-5c0.3-0.7,0.4-0.7,0.6-0.7c0.3,0,0.4,0.2,0.6,0.2c0.2,0,0.4,0.3,0.4,0.5
			c0,0.1-0.1,0.3-0.2,0.5c-0.6,1-1,1.7-1.2,2.6c-0.1,0.4-0.2,1.2-0.2,1.6c0,0.3,0.1,0.6,0.1,0.8c0.1,0.3,0.5,0.6,0.6,0.6
			c0.1,0.1,0.3,0.2,0.3,0.4c0,0.1-0.1,0.4-0.5,0.4c-0.1,0-0.7-0.1-0.9-0.2c-0.2-0.2-0.5-0.3-0.7-0.6c-0.2-0.3-0.3-0.7-0.3-1.1
			c0-1,0.2-1.3,0.2-1.4c0,0,0-0.1-0.1-0.1s-0.1,0-0.1,0.1c-0.7,1-1.2,1.6-1.6,2.2c-0.4,0.5-0.5,0.5-0.8,0.8
			c-0.1,0.2-0.5,0.2-0.7,0.2c-0.2,0-1-0.5-1.3-0.8c-0.1-0.1-0.1-0.3-0.1-0.5c0-0.6,0.2-0.7,0.2-1.1c0.1-0.5,0.6-1.7,0.9-2.4
			C54.3,7.7,54.7,6.8,55.5,5.6z"/>
		<path d="M66.6,10.2c0.2,0,0.6,0.4,0.6,0.5c0,0.1-0.1,0.1-0.1,0.2c0,0.1,0,0.2-0.1,0.2c-0.6,0.2-1.2,0.7-2,1.3
			c-1,0.8-1.9,1.3-2.6,1.3c-1,0-1.7-0.7-1.8-0.9c-0.1-0.3-0.2-0.5-0.2-0.8c0-0.4,0.2-0.9,0.3-1.3c0-0.1,0.1-0.4,0.2-0.7
			c0.9-1.8,2.2-4,3.7-4.8c0.1-0.1,0.1-0.1,0.3-0.1c0.6,0,1.4,0.3,1.8,0.7C66.8,6,66.8,6,66.8,6.2c0,0.2,0,0.2,0,0.3c0,0,0,0.1,0,0.1
			c-0.1,0.2-0.6,1-0.6,1.7c0,0.1-0.1,0.3-0.3,0.3c-0.1,0-0.2,0-0.4-0.1L65,8.1c-0.1-0.1-0.2-0.2-0.2-0.4c0-0.4,0.4-0.8,0.4-1.1
			c0-0.1-0.1-0.2-0.1-0.2c-0.1,0-0.1,0-0.3,0.2c-0.7,0.7-1.6,1.8-2.2,2.9c-0.6,1.1-1,2.3-1,2.7c0,0.2,0.1,0.4,0.3,0.4
			c0.8,0,1.7-0.5,2.5-1.1C65.2,10.8,66.1,10.2,66.6,10.2z"/>
		<path d="M69.6,13.8c-0.2,0-0.4,0-0.7-0.1c-0.4-0.1-1-0.4-1.1-0.5c-0.4-0.2-0.7-0.6-0.9-1.2c-0.1-0.4-0.2-1-0.2-1.4
			c0-0.2,0-0.3,0.1-0.6c0.5-1.8,1.7-3.4,3.1-4.8c0.3-0.3,1-0.8,1.9-0.8c0.5,0,0.7,0.1,1.1,0.2C73,4.7,73.4,5,73.4,5.7
			c0,0.5-0.2,0.9-0.4,1.3c-0.2,0.4-0.3,0.6-0.6,0.8c-1.2,1.4-2.6,2.9-4.1,3.8c-0.1,0.1-0.1,0.1-0.1,0.1c0,0.3,0.3,0.7,0.4,0.7
			c0.2,0.1,0.4,0.1,0.6,0.1c0.3,0,0.6-0.1,1.4-0.5c1.2-0.7,2-1.6,3-2.3c0.2-0.1,0.3-0.1,0.4-0.1c0.1,0,0.4,0.2,0.4,0.4
			c0,0.2,0,0.2,0,0.2c0,0.1,0,0.2-0.1,0.2c-0.9,0.7-1.2,1.6-3.9,3.1C69.9,13.8,69.8,13.8,69.6,13.8z M71.9,5.7c0-0.1,0-0.2-0.1-0.2
			c-0.1,0-0.2,0.1-0.4,0.2c-0.2,0.1-0.2,0.1-0.4,0.2c-1.2,1-2.4,2.5-2.8,4.1c0,0.1,0,0.1,0,0.1c0,0,0.1,0,0.1-0.1
			c1-0.8,1.9-1.8,2.7-2.7c0.3-0.3,0.2-0.4,0.4-0.7C71.7,6.3,71.9,6,71.9,5.7z"/>
	</g>
	<g>
		<g>
			<path d="M78.7,13.6V7.7h1.9c0.6,0,1.1,0.1,1.4,0.4s0.5,0.7,0.5,1.2c0,0.3-0.1,0.5-0.3,0.7c-0.2,0.2-0.4,0.4-0.7,0.5
				c0.4,0.1,0.6,0.3,0.8,0.5c0.2,0.3,0.3,0.6,0.3,1c0,0.5-0.2,1-0.5,1.2c-0.4,0.3-0.8,0.4-1.4,0.4H78.7z M79.5,10.2h1.3
				c0.3,0,0.5-0.1,0.7-0.2s0.3-0.4,0.3-0.7c0-0.3-0.1-0.6-0.3-0.7S81,8.3,80.7,8.3h-1.1V10.2z M79.5,10.8V13h1.4
				c0.4,0,0.6-0.1,0.8-0.3c0.2-0.2,0.3-0.4,0.3-0.8c0-0.3-0.1-0.6-0.3-0.8c-0.2-0.2-0.4-0.3-0.8-0.3H79.5z"/>
			<path d="M87.7,10.9H85V13h3.1v0.6h-3.9V7.7h3.9v0.6H85v1.9h2.7V10.9z"/>
			<path d="M93.9,8.3H92v5.3h-0.8V8.3h-1.9V7.7h4.6V8.3z"/>
			<path d="M97.8,12.1h-2.5l-0.6,1.5h-0.8l2.3-5.9h0.7l2.2,5.9h-0.8L97.8,12.1z M95.6,11.4h2l-1-2.7h0L95.6,11.4z"/>
		</g>
	</g>
</g>
</svg>
