<?xml version="1.0" encoding="UTF-8" standalone="no"?>
<!DOCTYPE svg PUBLIC "-//W3C//DTD SVG 1.1//EN"
 "http://www.w3.org/Graphics/SVG/1.1/DTD/svg11.dtd">
<!-- Generated by graphviz version 2.38.0 (20140413.2041)
 -->
<!-- Title: controllers_diagram Pages: 1 -->
<svg width="431pt" height="485pt"
 viewBox="0.00 0.00 431.50 485.50" xmlns="http://www.w3.org/2000/svg" xmlns:xlink="http://www.w3.org/1999/xlink">
<g id="graph0" class="graph" transform="scale(1 1) rotate(0) translate(148 266)">
<title>controllers_diagram</title>
<polygon fill="white" stroke="none" points="-148,219.5 -148,-266 283.5,-266 283.5,219.5 -148,219.5"/>
<!-- _diagram_info -->
<g id="node1" class="node"><title>_diagram_info</title>
<text text-anchor="start" x="-136" y="-207.6" font-family="Times,serif" font-size="13.00">Controllers diagram</text>
<text text-anchor="start" x="-136" y="-193.6" font-family="Times,serif" font-size="13.00">Date: Apr 26 2015 &#45; 10:39</text>
<text text-anchor="start" x="-136" y="-179.6" font-family="Times,serif" font-size="13.00">Migration version: 20150425153050</text>
<text text-anchor="start" x="-136" y="-165.6" font-family="Times,serif" font-size="13.00">Generated by RailRoady 1.3.0</text>
<text text-anchor="start" x="-136" y="-151.6" font-family="Times,serif" font-size="13.00">http://railroady.prestonlee.com</text>
</g>
<!-- CommentsController -->
<g id="node2" class="node"><title>CommentsController</title>
<path fill="none" stroke="black" d="M-60,107.5C-60,107.5 48,107.5 48,107.5 54,107.5 60,101.5 60,95.5 60,95.5 60,-93.5 60,-93.5 60,-99.5 54,-105.5 48,-105.5 48,-105.5 -60,-105.5 -60,-105.5 -66,-105.5 -72,-99.5 -72,-93.5 -72,-93.5 -72,95.5 -72,95.5 -72,101.5 -66,107.5 -60,107.5"/>
<text text-anchor="middle" x="-6" y="-90.3" font-family="Times,serif" font-size="14.00">CommentsController</text>
<polyline fill="none" stroke="black" points="-72,-82.5 60,-82.5 "/>
<text text-anchor="start" x="-64" y="-67.3" font-family="Times,serif" font-size="14.00">create</text>
<text text-anchor="start" x="-64" y="-52.3" font-family="Times,serif" font-size="14.00">destroy</text>
<text text-anchor="start" x="-64" y="-37.3" font-family="Times,serif" font-size="14.00">edit</text>
<text text-anchor="start" x="-64" y="-22.3" font-family="Times,serif" font-size="14.00">index</text>
<text text-anchor="start" x="-64" y="-7.3" font-family="Times,serif" font-size="14.00">new</text>
<text text-anchor="start" x="-64" y="7.7" font-family="Times,serif" font-size="14.00">show</text>
<text text-anchor="start" x="-64" y="22.7" font-family="Times,serif" font-size="14.00">update</text>
<polyline fill="none" stroke="black" points="-72,30.5 60,30.5 "/>
<polyline fill="none" stroke="black" points="-72,54.5 60,54.5 "/>
<text text-anchor="start" x="-64" y="69.7" font-family="Times,serif" font-size="14.00">_layout</text>
<text text-anchor="start" x="-64" y="84.7" font-family="Times,serif" font-size="14.00">comment_params</text>
<text text-anchor="start" x="-64" y="99.7" font-family="Times,serif" font-size="14.00">set_comment</text>
</g>
<!-- ApplicationController -->
<g id="node3" class="node"><title>ApplicationController</title>
<path fill="none" stroke="black" d="M102,215C102,215 214,215 214,215 220,215 226,209 226,203 226,203 226,133 226,133 226,127 220,121 214,121 214,121 102,121 102,121 96,121 90,127 90,133 90,133 90,203 90,203 90,209 96,215 102,215"/>
<text text-anchor="middle" x="158" y="136.2" font-family="Times,serif" font-size="14.00">ApplicationController</text>
<polyline fill="none" stroke="black" points="90,144 226,144 "/>
<polyline fill="none" stroke="black" points="90,168 226,168 "/>
<polyline fill="none" stroke="black" points="90,192 226,192 "/>
<text text-anchor="start" x="98" y="207.2" font-family="Times,serif" font-size="14.00">_layout</text>
</g>
<!-- Api::V2::ProductsController -->
<g id="node4" class="node"><title>Api::V2::ProductsController</title>
<path fill="none" stroke="black" d="M120.5,-108.5C120.5,-108.5 267.5,-108.5 267.5,-108.5 273.5,-108.5 279.5,-114.5 279.5,-120.5 279.5,-120.5 279.5,-249.5 279.5,-249.5 279.5,-255.5 273.5,-261.5 267.5,-261.5 267.5,-261.5 120.5,-261.5 120.5,-261.5 114.5,-261.5 108.5,-255.5 108.5,-249.5 108.5,-249.5 108.5,-120.5 108.5,-120.5 108.5,-114.5 114.5,-108.5 120.5,-108.5"/>
<text text-anchor="middle" x="194" y="-246.3" font-family="Times,serif" font-size="14.00">Api::V2::ProductsController</text>
<polyline fill="none" stroke="black" points="108.5,-238.5 279.5,-238.5 "/>
<text text-anchor="start" x="116.5" y="-223.3" font-family="Times,serif" font-size="14.00">create</text>
<text text-anchor="start" x="116.5" y="-208.3" font-family="Times,serif" font-size="14.00">destroy</text>
<text text-anchor="start" x="116.5" y="-193.3" font-family="Times,serif" font-size="14.00">index</text>
<text text-anchor="start" x="116.5" y="-178.3" font-family="Times,serif" font-size="14.00">show</text>
<text text-anchor="start" x="116.5" y="-163.3" font-family="Times,serif" font-size="14.00">update</text>
<polyline fill="none" stroke="black" points="108.5,-155.5 279.5,-155.5 "/>
<polyline fill="none" stroke="black" points="108.5,-131.5 279.5,-131.5 "/>
<text text-anchor="start" x="116.5" y="-116.3" font-family="Times,serif" font-size="14.00">_layout</text>
</g>
<!-- Api::V1::ProductsController -->
<g id="node5" class="node"><title>Api::V1::ProductsController</title>
<path fill="none" stroke="black" d="M102.5,90C102.5,90 249.5,90 249.5,90 255.5,90 261.5,84 261.5,78 261.5,78 261.5,-66 261.5,-66 261.5,-72 255.5,-78 249.5,-78 249.5,-78 102.5,-78 102.5,-78 96.5,-78 90.5,-72 90.5,-66 90.5,-66 90.5,78 90.5,78 90.5,84 96.5,90 102.5,90"/>
<text text-anchor="middle" x="176" y="-62.8" font-family="Times,serif" font-size="14.00">Api::V1::ProductsController</text>
<polyline fill="none" stroke="black" points="90.5,-55 261.5,-55 "/>
<text text-anchor="start" x="98.5" y="-39.8" font-family="Times,serif" font-size="14.00">apipie_validations</text>
<text text-anchor="start" x="98.5" y="-24.8" font-family="Times,serif" font-size="14.00">create</text>
<text text-anchor="start" x="98.5" y="-9.8" font-family="Times,serif" font-size="14.00">destroy</text>
<text text-anchor="start" x="98.5" y="5.2" font-family="Times,serif" font-size="14.00">index</text>
<text text-anchor="start" x="98.5" y="20.2" font-family="Times,serif" font-size="14.00">show</text>
<text text-anchor="start" x="98.5" y="35.2" font-family="Times,serif" font-size="14.00">update</text>
<polyline fill="none" stroke="black" points="90.5,43 261.5,43 "/>
<polyline fill="none" stroke="black" points="90.5,67 261.5,67 "/>
<text text-anchor="start" x="98.5" y="82.2" font-family="Times,serif" font-size="14.00">_layout</text>
</g>
</g>
</svg>
