<?xml version="1.0" encoding="UTF-8" standalone="no"?>
<!DOCTYPE svg PUBLIC "-//W3C//DTD SVG 1.1//EN"
 "http://www.w3.org/Graphics/SVG/1.1/DTD/svg11.dtd">
<!-- Generated by graphviz version 2.38.0 (20140413.2041)
 -->
<!-- Title: models_diagram Pages: 1 -->
<svg width="371pt" height="273pt"
 viewBox="0.00 0.00 371.50 273.00" xmlns="http://www.w3.org/2000/svg" xmlns:xlink="http://www.w3.org/1999/xlink">
<g id="graph0" class="graph" transform="scale(1 1) rotate(0) translate(4 269)">
<title>models_diagram</title>
<polygon fill="white" stroke="none" points="-4,4 -4,-269 367.5,-269 367.5,4 -4,4"/>
<!-- _diagram_info -->
<g id="node1" class="node"><title>_diagram_info</title>
<text text-anchor="start" x="8" y="-228.6" font-family="Times,serif" font-size="13.00">Models diagram</text>
<text text-anchor="start" x="8" y="-214.6" font-family="Times,serif" font-size="13.00">Date: Apr 26 2015 &#45; 10:39</text>
<text text-anchor="start" x="8" y="-200.6" font-family="Times,serif" font-size="13.00">Migration version: 20150425153050</text>
<text text-anchor="start" x="8" y="-186.6" font-family="Times,serif" font-size="13.00">Generated by RailRoady 1.3.0</text>
<text text-anchor="start" x="8" y="-172.6" font-family="Times,serif" font-size="13.00">http://railroady.prestonlee.com</text>
</g>
<!-- Comment -->
<g id="node2" class="node"><title>Comment</title>
<path fill="none" stroke="black" d="M244.5,-0.5C244.5,-0.5 351.5,-0.5 351.5,-0.5 357.5,-0.5 363.5,-6.5 363.5,-12.5 363.5,-12.5 363.5,-94.5 363.5,-94.5 363.5,-100.5 357.5,-106.5 351.5,-106.5 351.5,-106.5 244.5,-106.5 244.5,-106.5 238.5,-106.5 232.5,-100.5 232.5,-94.5 232.5,-94.5 232.5,-12.5 232.5,-12.5 232.5,-6.5 238.5,-0.5 244.5,-0.5"/>
<text text-anchor="middle" x="298" y="-91.3" font-family="Times,serif" font-size="14.00">Comment</text>
<polyline fill="none" stroke="black" points="232.5,-83.5 363.5,-83.5 "/>
<text text-anchor="start" x="240.5" y="-68.3" font-family="Times,serif" font-size="14.00">id :integer</text>
<text text-anchor="start" x="240.5" y="-53.3" font-family="Times,serif" font-size="14.00">content :text</text>
<text text-anchor="start" x="240.5" y="-38.3" font-family="Times,serif" font-size="14.00">product_id :integer</text>
<text text-anchor="start" x="240.5" y="-23.3" font-family="Times,serif" font-size="14.00">created_at :datetime</text>
<text text-anchor="start" x="240.5" y="-8.3" font-family="Times,serif" font-size="14.00">updated_at :datetime</text>
</g>
<!-- Product -->
<g id="node3" class="node"><title>Product</title>
<path fill="none" stroke="black" d="M244.5,-143.5C244.5,-143.5 351.5,-143.5 351.5,-143.5 357.5,-143.5 363.5,-149.5 363.5,-155.5 363.5,-155.5 363.5,-252.5 363.5,-252.5 363.5,-258.5 357.5,-264.5 351.5,-264.5 351.5,-264.5 244.5,-264.5 244.5,-264.5 238.5,-264.5 232.5,-258.5 232.5,-252.5 232.5,-252.5 232.5,-155.5 232.5,-155.5 232.5,-149.5 238.5,-143.5 244.5,-143.5"/>
<text text-anchor="middle" x="298" y="-249.3" font-family="Times,serif" font-size="14.00">Product</text>
<polyline fill="none" stroke="black" points="232.5,-241.5 363.5,-241.5 "/>
<text text-anchor="start" x="240.5" y="-226.3" font-family="Times,serif" font-size="14.00">id :integer</text>
<text text-anchor="start" x="240.5" y="-211.3" font-family="Times,serif" font-size="14.00">name :string</text>
<text text-anchor="start" x="240.5" y="-196.3" font-family="Times,serif" font-size="14.00">description_at :string</text>
<text text-anchor="start" x="240.5" y="-181.3" font-family="Times,serif" font-size="14.00">price :float</text>
<text text-anchor="start" x="240.5" y="-166.3" font-family="Times,serif" font-size="14.00">created_at :datetime</text>
<text text-anchor="start" x="240.5" y="-151.3" font-family="Times,serif" font-size="14.00">updated_at :datetime</text>
</g>
<!-- Product&#45;&gt;Comment -->
<g id="edge1" class="edge"><title>Product&#45;&gt;Comment</title>
<path fill="none" stroke="#2745b0" d="M298,-135.448C298,-129.304 298,-123.098 298,-117.001"/>
<ellipse fill="none" stroke="#2745b0" cx="298" cy="-139.455" rx="4" ry="4"/>
<polygon fill="#2745b0" stroke="#2745b0" points="298,-116.872 302.5,-106.872 298,-111.872 298,-106.872 298,-106.872 298,-106.872 298,-111.872 293.5,-106.872 298,-116.872 298,-116.872"/>
</g>
</g>
</svg>
