<?xml version="1.0" encoding="utf-8"?>
<svg xmlns="http://www.w3.org/2000/svg"
	xmlns:xlink="http://www.w3.org/1999/xlink"
	width="22px" height="22px">
<filter id="filter0" x="-5.00%" y="-5.00%" width="115.00%" height="115.00%" filterUnits="objectBoundingBox">
<feGaussianBlur in="SourceAlpha" result="dsBlurOut1" stdDeviation="0.50"/>
<feFlood result="dsFloodOut1" flood-color="rgb(15,7,10)"/>
<feComposite in="dsFloodOut1" in2="dsBlurOut1" result="dsShadow1" operator="atop"/>
<feComponentTransfer in="dsShadow1" result="dsShadowOpacity1">
<feFuncA type="linear" slope="0.75"/>
</feComponentTransfer>
<feOffset in="dsShadowOpacity1" dx="0.50" dy="0.87" result="dsOffset1"/>
<feComposite in="dsOffset1" in2="SourceAlpha" result="dropShadow1" operator="out"/>
</filter>
<defs>
<path id="symbol0" fill-rule="evenodd" d="M 10 0.07C 4.48 0.07 0 4.54 0 10.06 0 15.25 3.96 19.51 9.03 20 9.03 20 9.03 12.65 9.03 12.65 9.03 12.65 6.42 12.65 6.42 12.65 6.42 12.65 6.42 9.63 6.42 9.63 6.42 9.63 9.03 9.63 9.03 9.63 9.03 9.63 9.03 7.41 9.03 7.41 9.03 4.82 10.61 3.41 12.91 3.41 14.02 3.41 14.97 3.5 15.25 3.53 15.25 3.53 15.25 6.23 15.25 6.23 15.25 6.23 13.65 6.23 13.65 6.23 12.39 6.23 12.15 6.83 12.15 7.7 12.15 7.7 12.15 9.63 12.15 9.63 12.15 9.63 15.14 9.63 15.14 9.63 15.14 9.63 14.75 12.65 14.75 12.65 14.75 12.65 12.15 12.65 12.15 12.65 12.15 12.65 12.15 19.82 12.15 19.82 16.64 18.83 20 14.84 20 10.06 20 4.54 15.52 0.07 10 0.07Z"/>
</defs>
<g>
<use xlink:href="#symbol0" filter="url(#filter0)"/>
<use xlink:href="#symbol0" fill="rgb(255,255,255)"/>
</g>
</svg>