<?xml version="1.0" encoding="utf-8"?>
<svg xmlns="http://www.w3.org/2000/svg"
	xmlns:xlink="http://www.w3.org/1999/xlink"
	width="22px" height="22px">
<filter id="filter0" x="-5.00%" y="-5.00%" width="115.00%" height="115.00%" filterUnits="objectBoundingBox">
<feGaussianBlur in="SourceAlpha" result="dsBlurOut1" stdDeviation="0.50"/>
<feFlood result="dsFloodOut1" flood-color="rgb(15,7,10)"/>
<feComposite in="dsFloodOut1" in2="dsBlurOut1" result="dsShadow1" operator="atop"/>
<feComponentTransfer in="dsShadow1" result="dsShadowOpacity1">
<feFuncA type="linear" slope="0.75"/>
</feComponentTransfer>
<feOffset in="dsShadowOpacity1" dx="0.50" dy="0.87" result="dsOffset1"/>
<feComposite in="dsOffset1" in2="SourceAlpha" result="dropShadow1" operator="out"/>
</filter>
<defs>
<path id="symbol0" fill-rule="evenodd" d="M 10 20C 4.48 20 0 15.52 0 10 0 4.48 4.48 0 10 0 15.52 0 20 4.48 20 10 20 15.52 15.52 20 10 20ZM 9.44 3.94C 8.96 3.94 8.14 4.05 7.87 4.11 6.71 4.38 5.89 5 5.46 6.07 4.84 7.64 5.67 9.06 6.86 9.52 7.52 9.78 8.02 9.74 8.53 9.73 8.23 10.29 8.43 11.11 8.92 11.51 8.34 11.52 7.52 11.6 6.75 11.82 5.84 12.08 4.95 12.61 4.62 13.39 3.93 15.08 4.99 15.82 5.81 16.28 6.51 16.67 9.98 17.4 11.81 15.17 12.1 14.82 12.48 14.07 12.41 13.28 12.27 11.8 10.71 11.1 10.17 10.53 9.79 10.12 9.97 9.58 10.45 9.2 10.82 8.92 11.2 8.51 11.39 8.26 11.82 7.73 12.05 6.38 11.53 5.58 11.31 5.23 11.12 5 10.66 4.57 11.01 4.57 11.67 4.57 11.67 4.57 11.67 4.57 12.79 3.94 12.79 3.94 12.79 3.94 9.44 3.94 9.44 3.94ZM 16.99 9.6C 16.99 9.6 15.35 9.6 15.35 9.6 15.35 9.6 15.35 7.95 15.35 7.95 15.35 7.95 14.25 7.95 14.25 7.95 14.25 7.95 14.25 9.6 14.25 9.6 14.25 9.6 12.61 9.6 12.61 9.6 12.61 9.6 12.61 10.69 12.61 10.69 12.61 10.69 14.25 10.69 14.25 10.69 14.25 10.69 14.25 12.33 14.25 12.33 14.25 12.33 15.35 12.33 15.35 12.33 15.35 12.33 15.35 10.69 15.35 10.69 15.35 10.69 16.99 10.69 16.99 10.69 16.99 10.69 16.99 9.6 16.99 9.6ZM 8.95 9.27C 8.49 9.33 8.06 9.12 7.84 8.96 7.07 8.41 6.43 6.69 6.82 5.54 7.16 4.57 8.03 4.51 8.25 4.5 8.48 4.49 9.61 4.61 10.17 6.38 10.65 7.87 10.24 9.12 8.95 9.27ZM 11.29 14.23C 11.24 16.19 8.53 16.15 7.52 15.83 7.04 15.68 6.43 15.39 6.12 14.86 5.85 14.4 5.74 13.73 6.09 13.14 6.54 12.38 7.66 11.93 9.48 11.99 10.02 12.45 11.32 13.16 11.29 14.23Z"/>
</defs>
<g>
<use xlink:href="#symbol0" filter="url(#filter0)"/>
<use xlink:href="#symbol0" fill="rgb(255,255,255)"/>
</g>
</svg>