<?xml version="1.0" encoding="utf-8"?>
<svg xmlns="http://www.w3.org/2000/svg"
	xmlns:xlink="http://www.w3.org/1999/xlink"
	width="22px" height="22px">
<filter id="filter0" x="-5.00%" y="-5.00%" width="115.00%" height="115.00%" filterUnits="objectBoundingBox">
<feGaussianBlur in="SourceAlpha" result="dsBlurOut1" stdDeviation="0.50"/>
<feFlood result="dsFloodOut1" flood-color="rgb(15,7,10)"/>
<feComposite in="dsFloodOut1" in2="dsBlurOut1" result="dsShadow1" operator="atop"/>
<feComponentTransfer in="dsShadow1" result="dsShadowOpacity1">
<feFuncA type="linear" slope="0.75"/>
</feComponentTransfer>
<feOffset in="dsShadowOpacity1" dx="0.50" dy="0.87" result="dsOffset1"/>
<feComposite in="dsOffset1" in2="SourceAlpha" result="dropShadow1" operator="out"/>
</filter>
<defs>
<path id="symbol0" fill-rule="evenodd" d="M 10 0C 4.48 0 0 4.48 0 10 0 15.52 4.48 20 10 20 15.52 20 20 15.52 20 10 20 4.48 15.52 0 10 0ZM 16.4 8.18C 16.4 8.31 16.4 8.43 16.4 8.55 16.4 12.36 13.51 16.74 8.22 16.74 6.59 16.74 5.08 16.26 3.81 15.45 4.03 15.47 4.26 15.49 4.5 15.49 5.84 15.49 7.08 15.03 8.07 14.26 6.81 14.23 5.75 13.4 5.38 12.26 5.56 12.29 5.74 12.31 5.92 12.31 6.18 12.31 6.44 12.27 6.68 12.21 5.36 11.94 4.37 10.78 4.37 9.39 4.37 9.37 4.37 9.36 4.37 9.35 4.76 9.57 5.2 9.7 5.68 9.71 4.9 9.19 4.4 8.31 4.4 7.32 4.4 6.79 4.54 6.29 4.79 5.87 6.2 7.61 8.32 8.76 10.71 8.88 10.67 8.67 10.64 8.45 10.64 8.22 10.64 6.63 11.93 5.34 13.52 5.34 14.34 5.34 15.09 5.69 15.62 6.25 16.27 6.12 16.89 5.88 17.44 5.55 17.23 6.23 16.77 6.79 16.18 7.15 16.76 7.08 17.32 6.92 17.83 6.69 17.45 7.27 16.96 7.78 16.4 8.18Z"/>
</defs>
<g>
<use xlink:href="#symbol0" filter="url(#filter0)"/>
<use xlink:href="#symbol0" fill="rgb(255,255,255)"/>
</g>
</svg>